<?xml version="1.0" standalone="no"?><!DOCTYPE svg PUBLIC "-//W3C//DTD SVG 1.1//EN" "http://www.w3.org/Graphics/SVG/1.1/DTD/svg11.dtd"><svg t="1663231634447" class="icon" viewBox="0 0 1024 1024" version="1.1" xmlns="http://www.w3.org/2000/svg" p-id="2443" xmlns:xlink="http://www.w3.org/1999/xlink" width="32" height="32"><path d="M511.94690332 935.31401443c-256.31857778 0-466.03377778-209.7152-466.03377778-466.03377777s209.7152-466.03377778 466.03377778-466.03377778 466.03377778 209.7152 466.03377777 466.03377778-209.7152 466.03377778-466.03377777 466.03377777z m0-77.67229553c213.59881443 0 388.3614811-174.76266667 388.36148224-388.36148224s-174.76266667-388.3614811-388.36148224-388.36148111-388.3614811 174.76266667-388.36148111 388.36148111 174.76266667 388.3614811 388.36148111 388.36148224z m287.38749667 62.13783665c-15.53445888-15.53445888-11.65084445-42.71976334 3.88361444-54.37060778s42.71976334-11.65084445 54.37060778 3.88361557l73.78868111 89.32313999c15.53445888 15.53445888 11.65084445 42.71976334-3.88361444 54.37060778s-42.71976334 11.65084445-54.37060779-3.88361444l-73.7886811-89.32314112z" fill="#f58ee5" p-id="2444"></path></svg>